<svg xmlns="http://www.w3.org/2000/svg" viewBox="0 0 247.89 257.03"><defs><style>.cls-1{fill:#fff;}</style></defs><g id="Camada_2" data-name="Camada 2"><g id="Camada_2-2" data-name="Camada 2"><path class="cls-1" d="M107.73,252.59h0V40.9L86.88,51.59,85.72,240.83,53.29,223.72V69.77L32.43,80.46V213l-14.94-7.85A32.68,32.68,0,0,1,0,176.17V81.77A32.68,32.68,0,0,1,17.15,53L108,3.93a32.68,32.68,0,0,1,31.73.36l.45.26V252.87l-.06,0A32.7,32.7,0,0,1,107.73,252.59Z"/><path class="cls-1" d="M161,16.31V241.89l69.47-36.76a32.67,32.67,0,0,0,17.4-28.89V82.83a32.69,32.69,0,0,0-17.12-28.75Zm54.44,160.37-20.85,11.76V68.7l20.85,10.69Z"/></g></g></svg>